<svg width="100" height="56" fill="none" xmlns="http://www.w3.org/2000/svg"><path d="M2 21h96L75.82 5M98 33H2l22.18 16" stroke="#949494"/><path d="M4.268 5.764v2.448h2.88v1.116h-2.88v2.556h3.24V13H2.9V4.648h4.608v1.116h-3.24zm7.361 6.012l1.872-5.388h1.452L12.433 13h-1.632L8.293 6.388h1.464l1.872 5.388zm7.106 1.332c-.624 0-1.188-.14-1.692-.42a3.113 3.113 0 01-1.188-1.2c-.288-.52-.432-1.12-.432-1.8 0-.672.148-1.268.444-1.788.296-.52.7-.92 1.212-1.2a3.517 3.517 0 011.716-.42c.632 0 1.204.14 1.716.42.512.28.916.68 1.212 1.2.296.52.444 1.116.444 1.788 0 .672-.152 1.268-.456 1.788-.304.52-.72.924-1.248 1.212-.52.28-1.096.42-1.728.42zm0-1.188c.352 0 .68-.084.984-.252.312-.168.564-.42.756-.756.192-.336.288-.744.288-1.224s-.092-.884-.276-1.212a1.855 1.855 0 00-.732-.756 2.002 2.002 0 00-.984-.252c-.352 0-.68.084-.984.252-.296.168-.532.42-.708.756-.176.328-.264.732-.264 1.212 0 .712.18 1.264.54 1.656.368.384.828.576 1.38.576zm6.032-7.8V13H23.4V4.12h1.368zM29 11.776l1.872-5.388h1.452L29.803 13h-1.632l-2.508-6.612h1.464L29 11.776zm10.299-2.244c0 .248-.017.472-.049.672h-5.052c.04.528.236.952.588 1.272.353.32.785.48 1.297.48.736 0 1.255-.308 1.56-.924h1.475a2.998 2.998 0 01-1.091 1.5c-.52.384-1.169.576-1.945.576-.632 0-1.2-.14-1.704-.42a3.139 3.139 0 01-1.175-1.2c-.28-.52-.42-1.12-.42-1.8 0-.68.136-1.276.408-1.788.28-.52.668-.92 1.163-1.2.505-.28 1.08-.42 1.728-.42.624 0 1.18.136 1.668.408.488.272.868.656 1.14 1.152.272.488.408 1.052.408 1.692zM37.87 9.1c-.008-.504-.188-.908-.54-1.212-.352-.304-.788-.456-1.308-.456-.472 0-.877.152-1.212.456-.337.296-.537.7-.6 1.212h3.66zM49.232 51l-1.92-3.336h-1.044V51H44.9v-8.34h2.88c.64 0 1.18.112 1.62.336.448.224.78.524.996.9.224.376.336.796.336 1.26 0 .544-.16 1.04-.48 1.488-.312.44-.796.74-1.452.9L50.864 51h-1.632zm-2.964-4.428h1.512c.512 0 .896-.128 1.152-.384.264-.256.396-.6.396-1.032 0-.432-.128-.768-.384-1.008-.256-.248-.644-.372-1.164-.372h-1.512v2.796zm12.154.96c0 .248-.016.472-.048.672h-5.052c.04.528.236.952.588 1.272.352.32.784.48 1.296.48.736 0 1.256-.308 1.56-.924h1.476a2.998 2.998 0 01-1.092 1.5c-.52.384-1.168.576-1.944.576-.632 0-1.2-.14-1.704-.42a3.139 3.139 0 01-1.176-1.2c-.28-.52-.42-1.12-.42-1.8 0-.68.136-1.276.408-1.788.28-.52.668-.92 1.164-1.2.504-.28 1.08-.42 1.728-.42.624 0 1.18.136 1.668.408.488.272.868.656 1.14 1.152.272.488.408 1.052.408 1.692zm-1.428-.432c-.008-.504-.188-.908-.54-1.212-.352-.304-.788-.456-1.308-.456-.472 0-.876.152-1.212.456-.336.296-.536.7-.6 1.212h3.66zm3.35-3.588a.847.847 0 01-.624-.252.847.847 0 01-.252-.624c0-.248.084-.456.252-.624a.847.847 0 01.624-.252c.24 0 .444.084.612.252a.847.847 0 01.252.624.847.847 0 01-.252.624.833.833 0 01-.612.252zm.672.876V51h-1.368v-6.612h1.368zm3.272 1.116v3.66c0 .248.056.428.168.54.12.104.32.156.6.156h.84V51h-1.08c-.616 0-1.088-.144-1.416-.432-.328-.288-.492-.756-.492-1.404v-3.66h-.78v-1.116h.78v-1.644h1.38v1.644h1.608v1.116h-1.608zm8.81 2.028c0 .248-.017.472-.049.672h-5.052c.04.528.236.952.588 1.272.352.32.784.48 1.296.48.736 0 1.256-.308 1.56-.924h1.476a2.998 2.998 0 01-1.092 1.5c-.52.384-1.168.576-1.944.576-.632 0-1.2-.14-1.704-.42a3.139 3.139 0 01-1.176-1.2c-.28-.52-.42-1.12-.42-1.8 0-.68.136-1.276.408-1.788.28-.52.668-.92 1.164-1.2.504-.28 1.08-.42 1.728-.42.624 0 1.18.136 1.668.408.488.272.868.656 1.14 1.152.272.488.408 1.052.408 1.692zm-1.429-.432c-.008-.504-.188-.908-.54-1.212-.352-.304-.788-.456-1.308-.456-.472 0-.876.152-1.212.456-.336.296-.536.7-.6 1.212h3.66zm4.022-1.752c.2-.336.464-.596.792-.78.336-.192.732-.288 1.188-.288v1.416h-.348c-.536 0-.944.136-1.224.408-.272.272-.408.744-.408 1.416V51h-1.368v-6.612h1.368v.96zm2.662 2.316c0-.664.136-1.252.408-1.764a3.047 3.047 0 012.712-1.62c.52 0 .972.104 1.356.312.392.2.704.452.936.756v-.96h1.38V51h-1.38v-.984a2.717 2.717 0 01-.948.78c-.4.208-.856.312-1.368.312a2.938 2.938 0 01-1.56-.432 3.206 3.206 0 01-1.128-1.224c-.272-.528-.408-1.124-.408-1.788zm5.412.024c0-.456-.096-.852-.288-1.188a1.938 1.938 0 00-.732-.768 1.93 1.93 0 00-.984-.264c-.352 0-.68.088-.984.264-.304.168-.552.42-.744.756-.184.328-.276.72-.276 1.176 0 .456.092.856.276 1.2.192.344.44.608.744.792a1.974 1.974 0 001.968 0c.304-.176.548-.432.732-.768.192-.344.288-.744.288-1.2zm4.653-2.184v3.66c0 .248.056.428.168.54.12.104.32.156.6.156h.84V51h-1.08c-.616 0-1.088-.144-1.416-.432-.328-.288-.492-.756-.492-1.404v-3.66h-.78v-1.116h.78v-1.644h1.38v1.644h1.608v1.116h-1.608zm8.809 2.028c0 .248-.016.472-.048.672h-5.052c.04.528.236.952.588 1.272.352.32.784.48 1.296.48.736 0 1.256-.308 1.56-.924h1.476a2.998 2.998 0 01-1.092 1.5c-.52.384-1.168.576-1.944.576-.632 0-1.2-.14-1.704-.42a3.139 3.139 0 01-1.176-1.2c-.28-.52-.42-1.12-.42-1.8 0-.68.136-1.276.408-1.788.28-.52.668-.92 1.164-1.2.504-.28 1.08-.42 1.728-.42.624 0 1.18.136 1.668.408.488.272.868.656 1.14 1.152.272.488.408 1.052.408 1.692zm-1.428-.432c-.008-.504-.188-.908-.54-1.212-.352-.304-.788-.456-1.308-.456-.472 0-.876.152-1.212.456-.336.296-.536.7-.6 1.212h3.66z" fill="#474747"/></svg>